<?xml version="1.0" encoding="UTF-8" standalone="no"?>
<!-- Created with Inkscape (http://www.inkscape.org/) -->

<svg
   width="500"
   height="500"
   viewBox="0 0 132.29166 132.29167"
   version="1.1"
   id="svg1"
   xml:space="preserve"
   inkscape:version="1.3.2 (091e20e, 2023-11-25, custom)"
   sodipodi:docname="favicon.svg"
   xmlns:inkscape="http://www.inkscape.org/namespaces/inkscape"
   xmlns:sodipodi="http://sodipodi.sourceforge.net/DTD/sodipodi-0.dtd"
   xmlns="http://www.w3.org/2000/svg"
   xmlns:svg="http://www.w3.org/2000/svg"><sodipodi:namedview
     id="namedview1"
     pagecolor="#505050"
     bordercolor="#eeeeee"
     borderopacity="1"
     inkscape:showpageshadow="0"
     inkscape:pageopacity="0"
     inkscape:pagecheckerboard="0"
     inkscape:deskcolor="#505050"
     inkscape:document-units="mm"
     inkscape:zoom="0.72426347"
     inkscape:cx="396.95499"
     inkscape:cy="119.43168"
     inkscape:window-width="1920"
     inkscape:window-height="1009"
     inkscape:window-x="-8"
     inkscape:window-y="-8"
     inkscape:window-maximized="1"
     inkscape:current-layer="g1" /><defs
     id="defs1" /><g
     inkscape:label="Layer 1"
     inkscape:groupmode="layer"
     id="layer1"><g
       style="fill:none"
       id="g1"
       transform="matrix(8.8194444,0,0,8.8194444,-0.80807423,-78.643424)"><g
         id="g2"
         transform="matrix(0.34112766,0,0,0.33303279,3.4745599,12.545794)"><path
           fill-rule="evenodd"
           clip-rule="evenodd"
           d="m 12.0196,14.9374 c -0.2912,0 -0.5889,0.0444 -0.8412,0.1422 -0.1238,0.0479 -0.2752,0.1235 -0.4085,0.2456 -0.1338,0.1227 -0.3067,0.3497 -0.3067,0.6747 0,0.325 0.1729,0.552 0.3067,0.6746 0.1333,0.1222 0.2847,0.1977 0.4085,0.2457 0.2523,0.0978 0.55,0.1422 0.8412,0.1422 0.2913,0 0.5889,-0.0444 0.8413,-0.1422 0.1237,-0.048 0.2751,-0.1235 0.4084,-0.2457 0.1339,-0.1226 0.3068,-0.3496 0.3068,-0.6746 0,-0.325 -0.1729,-0.552 -0.3068,-0.6747 -0.1333,-0.1221 -0.2847,-0.1977 -0.4084,-0.2456 -0.2524,-0.0978 -0.55,-0.1422 -0.8413,-0.1422 z"
           fill="#1c274c"
           id="path1"
           style="fill:#ab55a2;fill-opacity:1" /><path
           d="m 14.0365,12.6464 c 0.165,-0.2664 0.4909,-0.5839 0.9798,-0.5839 0.4888,0 0.8147,0.3175 0.9797,0.5839 0.1721,0.2779 0.2541,0.6148 0.2541,0.9474 0,0.3325 -0.082,0.6694 -0.2541,0.9473 -0.165,0.2664 -0.4909,0.5839 -0.9797,0.5839 -0.4889,0 -0.8148,-0.3175 -0.9798,-0.5839 -0.1721,-0.2779 -0.2541,-0.6148 -0.2541,-0.9473 0,-0.3326 0.082,-0.6695 0.2541,-0.9474 z"
           fill="#1c274c"
           id="path2"
           style="fill:#ab55a2;fill-opacity:1" /><path
           d="m 9.01634,12.0625 c -0.48883,0 -0.81473,0.3175 -0.97976,0.5839 -0.17213,0.2779 -0.25411,0.6148 -0.25411,0.9474 0,0.3325 0.08198,0.6694 0.25411,0.9473 0.16503,0.2664 0.49093,0.5839 0.97976,0.5839 0.48884,0 0.81474,-0.3175 0.97976,-0.5839 0.1721,-0.2779 0.2541,-0.6148 0.2541,-0.9473 0,-0.3326 -0.082,-0.6695 -0.2541,-0.9474 C 9.83108,12.38 9.50518,12.0625 9.01634,12.0625 Z"
           fill="#1c274c"
           id="path3"
           style="fill:#ab55a2;fill-opacity:1" /><path
           fill-rule="evenodd"
           clip-rule="evenodd"
           d="M 6.09485,4.25 C 5.48148,4.25 4.77463,4.42871 4.20882,4.91616 3.62226,5.4215 3.27004,6.18781 3.27004,7.1875 v 1.875 l 1e-5,0.00295 C 3.2712,9.35941 3.3211,9.94757 3.4888,10.4392 c 0.05485,0.1609 0.14249,0.3742 0.28884,0.5666 -0.284,0.563 -0.4186,1.1437 -0.47977,1.7037 -0.05107,0.4676 -0.05176,0.9584 -0.04363,1.4116 -0.66104,0.2296 -1.34547,0.5138 -1.66104,0.7176 -0.34796,0.2247 -0.44786,0.689 -0.22314,1.0369 0.22472,0.348 0.68897,0.4479 1.03692,0.2232 0.11642,-0.0752 0.45988,-0.2324 0.91169,-0.4049 0.06888,0.4791 0.20849,0.9156 0.40343,1.3124 -0.15589,0.0972 -0.29363,0.1872 -0.40321,0.2589 -0.04195,0.0274 -0.07977,0.0521 -0.1129,0.0735 -0.34796,0.2247 -0.44786,0.689 -0.22314,1.0369 0.22472,0.348 0.68897,0.4479 1.03693,0.2232 0.04112,-0.0266 0.08495,-0.0552 0.1312,-0.0854 0.13118,-0.0856 0.28189,-0.184 0.44603,-0.2846 0.58952,0.6025 1.32164,1.0676 2.08215,1.4174 1.78082,0.8192 3.88984,1.1038 5.32094,1.1038 1.431,0 3.5401,-0.2846 5.3209,-1.1038 0.7605,-0.3498 1.4926,-0.8149 2.0821,-1.4174 0.1642,0.1006 0.3149,0.199 0.446,0.2846 0.0463,0.0302 0.0901,0.0588 0.1312,0.0854 0.348,0.2247 0.8122,0.1248 1.037,-0.2232 0.2247,-0.3479 0.1248,-0.8122 -0.2232,-1.0369 -0.0331,-0.0214 -0.0709,-0.0461 -0.1129,-0.0735 -0.1096,-0.0717 -0.2473,-0.1617 -0.4031,-0.2589 0.1949,-0.3968 0.3346,-0.8333 0.4034,-1.3125 0.452,0.1725 0.7956,0.3298 0.9121,0.405 0.3479,0.2247 0.8122,0.1248 1.0369,-0.2232 0.2247,-0.3479 0.1248,-0.8122 -0.2231,-1.0369 -0.3157,-0.2038 -1.0003,-0.4881 -1.6615,-0.7177 0.0082,-0.4532 0.0075,-0.944 -0.0436,-1.4115 -0.0611,-0.56 -0.1958,-1.1407 -0.4798,-1.7037 0.1464,-0.1924 0.234,-0.4057 0.2889,-0.5666 0.1677,-0.49162 0.2176,-1.07979 0.2187,-1.37375 L 20.7302,9.0625 V 7.18761 c 0,-0.99969 -0.3523,-1.76599 -0.9388,-2.27133 -0.5658,-0.48746 -1.2727,-0.66617 -1.886,-0.66617 -0.4085,0 -0.831,0.15674 -1.1717,0.31065 -0.3611,0.16316 -0.7385,0.37514 -1.0779,0.5706 -0.073,0.04203 -0.1439,0.08308 -0.2128,0.12296 L 15.441,5.25548 C 15.177,5.4084 14.9427,5.5441 14.7339,5.65167 14.6042,5.7185 14.5035,5.7643 14.4285,5.79206 14.3969,5.80377 14.3767,5.80966 14.3663,5.81242 14.1129,5.81102 13.9514,5.79033 13.7181,5.76044 13.6681,5.75403 13.6147,5.74719 13.5564,5.74003 13.2098,5.69743 12.7722,5.65636 12.0001,5.65636 c -0.7721,0 -1.2096,0.04107 -1.5563,0.08367 -0.0583,0.00716 -0.1116,0.014 -0.1617,0.02041 C 10.0489,5.79033 9.88738,5.81102 9.63388,5.81242 9.62352,5.80966 9.60332,5.80376 9.57174,5.79206 9.49678,5.7643 9.39604,5.71849 9.26633,5.65166 9.05755,5.54408 8.82331,5.40842 8.55926,5.25548 8.48975,5.21523 8.41818,5.17377 8.34446,5.13132 8.00502,4.93584 7.62764,4.72384 7.26652,4.56067 6.92587,4.40675 6.50329,4.25 6.09485,4.25 Z m 0.06707,13.3638 c 0.33403,0.2519 0.71888,0.4741 1.14412,0.6697 1.5309,0.7042 3.41186,0.9665 4.69406,0.9665 1.2822,0 3.1631,-0.2623 4.694,-0.9665 0.4253,-0.1956 0.8101,-0.4178 1.1441,-0.6697 -0.3524,-0.0614 -0.6203,-0.3688 -0.6203,-0.7388 0,-0.4142 0.3358,-0.75 0.75,-0.75 0.3272,0 0.6616,0.0818 0.972,0.1954 0.1586,-0.3319 0.256,-0.6954 0.2827,-1.0933 -0.2977,-0.0727 -0.5033,-0.1021 -0.6092,-0.1021 -0.4142,0 -0.75,-0.3358 -0.75,-0.75 0,-0.4142 0.3358,-0.75 0.75,-0.75 0.1947,0 0.415,0.0292 0.637,0.0724 10e-5,-0.2761 -0.0089,-0.5472 -0.0392,-0.825 -0.0705,-0.6454 -0.2532,-1.2183 -0.6843,-1.7277 -0.1542,-0.1822 -0.346,-0.3634 -0.5867,-0.5402 -0.3339,-0.2451 -0.4058,-0.71451 -0.1606,-1.04839 0.2451,-0.33387 0.7145,-0.4058 1.0484,-0.16065 0.1191,0.08746 0.2317,0.17736 0.3379,0.2696 0.044,-0.2282 0.0636,-0.46689 0.0643,-0.60419 V 7.18761 c 0,-0.6253 -0.2064,-0.95275 -0.4179,-1.13491 -0.2322,-0.20004 -0.5627,-0.30259 -0.9069,-0.30259 -0.0704,0 -0.2464,0.03857 -0.5541,0.1776 C 17.064,6.0575 16.7432,6.23612 16.4043,6.43125 16.3407,6.4679 16.2759,6.50544 16.2106,6.54328 15.9428,6.69843 15.666,6.85883 15.4209,6.98509 15.2663,7.06473 15.1052,7.14099 14.9495,7.19867 14.8058,7.25192 14.607,7.3125 14.3941,7.3125 14.0223,7.3125 13.7617,7.27877 13.5115,7.2464 13.4654,7.24043 13.4196,7.23449 13.3735,7.22883 13.0848,7.19336 12.7084,7.15636 12.0001,7.15636 c -0.7082,0 -1.0847,0.037 -1.3734,0.07247 -0.046,0.00566 -0.0918,0.01159 -0.138,0.01756 C 10.2386,7.27877 9.97796,7.3125 9.6061,7.3125 9.39326,7.3125 9.19445,7.25191 9.05069,7.19866 8.89497,7.14098 8.73386,7.06471 8.57928,6.98506 8.33423,6.8588 8.05742,6.69839 7.78968,6.54325 7.72435,6.50539 7.65955,6.46784 7.59589,6.43118 7.25702,6.23603 6.93614,6.05741 6.64888,5.92761 6.34115,5.78856 6.16522,5.75 6.09485,5.75 5.75062,5.75 5.42007,5.85254 5.18787,6.05259 4.97643,6.23475 4.77004,6.56219 4.77004,7.1875 V 9.06088 C 4.7707,9.19819 4.79025,9.43686 4.83425,9.66506 4.94053,9.57281 5.05309,9.48292 5.1722,9.39546 5.50608,9.15031 5.97547,9.22224 6.22062,9.55612 6.46577,9.88999 6.39385,10.3594 6.05997,10.6045 5.81926,10.7813 5.62748,10.9625 5.47331,11.1447 5.04223,11.6541 4.85949,12.227 4.789,12.8724 4.75865,13.1502 4.74966,13.4213 4.74975,13.6975 4.97192,13.6543 5.19231,13.625 5.38719,13.625 c 0.41422,0 0.75,0.3358 0.75,0.75 0,0.4142 -0.33578,0.75 -0.75,0.75 -0.10598,0 -0.3117,0.0294 -0.60961,0.1021 0.02676,0.3979 0.1241,0.7614 0.28269,1.0932 0.31042,-0.1135 0.64477,-0.1953 0.97197,-0.1953 0.41422,0 0.75,0.3358 0.75,0.75 0,0.37 -0.26791,0.6774 -0.62032,0.7388 z"
           fill="#1c274c"
           id="path4"
           style="fill:#ab55a2;fill-opacity:1" /></g><g
         style="fill:none"
         id="g3"
         transform="matrix(0.75678717,0,0,0.75678717,-8.9979117,6.4797929)"><path
           d="m 26.425055,8.4876689 c 0.2771,-0.30788 0.7513,-0.33284 1.0592,-0.05574 l 1.7375,1.56374 c 0.7364,0.6626601 1.3472,1.2123301 1.7666,1.7109301 0.441,0.5242 0.7545,1.0875 0.7545,1.7828 0,0.6953 -0.3135,1.2586 -0.7545,1.7828 -0.4194,0.4986 -1.0302,1.0483 -1.7666,1.7109 l -1.7375,1.5638 c -0.3079,0.2771 -0.7821,0.2521 -1.0592,-0.0558 -0.2771,-0.3079 -0.2521,-0.7821 0.0558,-1.0592 l 1.6964,-1.5268 c 0.7879,-0.7091 1.3191,-1.1895 1.6632,-1.5985 0.3303,-0.3926 0.4024,-0.6218 0.4024,-0.8172 0,-0.1954 -0.0721,-0.4246 -0.4024,-0.8172 -0.3441,-0.409 -0.8753,-0.8894 -1.6632,-1.59851 l -1.6964,-1.5268201 c -0.3079,-0.2771 -0.3329,-0.75131 -0.0558,-1.0592 z"
           fill="#1c274c"
           id="path1-8"
           style="fill:#ab55a2;fill-opacity:1" /><path
           d="m 17.484335,9.5468689 c 0.30788,-0.2771 0.33284,-0.75131 0.05574,-1.0592 -0.27709,-0.30788 -0.75131,-0.33284 -1.05919,-0.05574 l -1.73749,1.56374 c -0.73634,0.6626601 -1.34715,1.2123301 -1.76656,1.7109301 -0.44103,0.5242 -0.75453,1.0875 -0.75453,1.7828 0,0.6953 0.3135,1.2586 0.75453,1.7828 0.41941,0.4986 1.03021,1.0483 1.76654,1.7109 l 1.73751,1.5638 c 0.30788,0.2771 0.7821,0.2521 1.05919,-0.0558 0.2771,-0.3079 0.25214,-0.7821 -0.05574,-1.0592 l -1.69647,-1.5268 c -0.78788,-0.7091 -1.31908,-1.1895 -1.66318,-1.5985 -0.33025,-0.3926 -0.40238,-0.6218 -0.40238,-0.8172 0,-0.1954 0.07213,-0.4246 0.40238,-0.8172 0.3441,-0.409 0.8753,-0.8894 1.66318,-1.59851 z"
           fill="#1c274c"
           id="path2-1"
           style="fill:#ab55a2;fill-opacity:1" /></g></g></g></svg>
